#!OML:ASF H:\Terrain\Patient Classification 1\Animal2\Wednesday\Animal2.ASF
:FULLY-SPECIFIED
:DEGREES
2693
root -4.33178 16.9342 -6.0479 198.362 -184.733 -181.43
lowerback 18.0342 1.11504 -1.55637
upperback -8.25086 1.43098 1.67251
thorax -20.1853 1.00811 2.38174
lowerneck 13.7611 13.858 16.6141
upperneck -37.7478 17.7522 -23.9375
head -9.98531 9.39834 -13.6583
rclavicle 1.65488e-014 1.51076e-014
rhumerus -49.6471 -1.44416 -71.4372
rradius 48.7649
rwrist 12.9504
rhand -15.2948 28.4574
rfingers 7.12502
rthumb 10.8804 -1.24068
lclavicle 1.65488e-014 1.51076e-014
lhumerus -46.1432 6.46137 60.7768
lradius 63.4684
lwrist 64.3447
lhand -39.4002 14.3182
lfingers 7.12502
lthumb -12.3895 43.9311
rfemur -46.8349 -0.988372 10.2947
rtibia 72.6604
rfoot -16.8804 -8.62929
rtoes 20.5793
lfemur -52.2867 4.30411 -17.4613
ltibia 49.9228
lfoot -16.2572 -2.58828
ltoes -34.4875
2694
root -4.34957 16.9376 -5.96983 198.537 -185.039 -181.315
lowerback 18.5414 1.14712 -1.87236
upperback -8.54844 1.41521 1.82281
thorax -20.3524 1.03909 2.63443
lowerneck 13.542 13.7935 16.4111
upperneck -37.6058 17.603 -23.8258
head -9.96755 9.33921 -13.5487
rclavicle 8.44835e-015 -1.31198e-014
rhumerus -50.0804 -1.70224 -70.5731
rradius 47.8921
rwrist 11.483
rhand -14.6019 28.7327
rfingers 7.12502
rthumb 11.5487 -0.929137
lclavicle 8.44835e-015 -1.31198e-014
lhumerus -45.2151 5.59484 61.4631
lradius 65.8358
lwrist 62.6564
lhand -38.4869 14.1478
lfingers 7.12502
lthumb -11.5088 43.8119
rfemur -48.0992 -0.420678 10.1902
rtibia 71.6724
rfoot -17.5214 -9.4423
rtoes 23.8073
lfemur -52.243 4.23026 -17.4581
ltibia 49.8174
lfoot -16.3433 -2.98966
ltoes -33.596
2695
root -4.38935 16.9176 -5.93258 198.57 -185.237 -180.865
lowerback 19.8969 1.25972 -2.62868
upperback -8.66425 1.3327 1.82059
thorax -21.3697 1.1229 3.08482
lowerneck 13.288 13.7152 16.265
upperneck -37.5522 17.4208 -23.7961
head -9.96342 9.26552 -13.4892
rclavicle 1.64494e-014 5.1684e-015
rhumerus -50.4159 -2.1205 -69.582
rradius 47.1308
rwrist 10.8552
rhand -13.9378 28.7878
rfingers 7.12502
rthumb 12.189 -0.837092
lclavicle 1.64494e-014 5.1684e-015
lhumerus -44.4251 4.52551 62.115
lradius 68.2397
lwrist 60.617
lhand -37.7508 13.797
lfingers 7.12502
lthumb -10.7989 43.4994
rfemur -49.5805 0.259752 9.68042
rtibia 70.6804
rfoot -17.8941 -10.0906
rtoes 27.6185
lfemur -52.2121 4.00103 -17.6711
ltibia 49.6045
lfoot -16.1257 -3.18917
ltoes -32.981
2696
root -4.36262 16.9779 -5.75818 198.971 -186.068 -180.798
lowerback 18.9682 0.97678 -2.16548
upperback -8.57079 1.10013 1.86355
thorax -20.6341 0.952019 2.95982
lowerneck 13.2537 13.6708 16.1801
upperneck -37.6933 17.3134 -23.8676
head -10.0343 9.22966 -13.5343
rclavicle 2.23633e-014 2.22639e-014
rhumerus -50.744 -2.47179 -68.6591
rradius 46.7543
rwrist 10.2113
rhand -13.0664 28.1337
rfingers 7.12502
rthumb 13.0291 -1.43944
lclavicle 2.23633e-014 2.22639e-014
lhumerus -43.7676 3.39921 62.6928
lradius 70.7035
lwrist 58.1545
lhand -36.8925 13.9837
lfingers 7.12502
lthumb -9.97091 43.7276
rfemur -49.8368 -0.253365 9.65298
rtibia 68.9514
rfoot -18.5014 -10.3679
rtoes 28.124
lfemur -51.7335 3.27475 -17.6299
ltibia 49.2342
lfoot -16.5867 -3.25037
ltoes -32.3455
2697
root -4.35498 17.0211 -5.62641 199.376 -186.686 -181.073
lowerback 18.4275 0.794928 -1.6323
upperback -8.54069 1.04148 2.05752
thorax -20.2469 0.867837 2.89913
lowerneck 13.3593 13.6193 16.0767
upperneck -37.8917 17.1958 -23.9989
head -10.1501 9.19899 -13.6307
rclavicle -2.48481e-015 3.57812e-015
rhumerus -51.1799 -2.80891 -67.694
rradius 47.022
rwrist 9.77163
rhand -12.6931 27.9849
rfingers 7.12502
rthumb 13.389 -1.56483
lclavicle -2.48481e-015 3.57812e-015
lhumerus -43.1408 2.45603 63.1964
lradius 72.9652
lwrist 55.3971
lhand -35.9987 14.2558
lfingers 7.12502
lthumb -9.10853 44.0391
rfemur -50.5013 -0.248557 9.98683
rtibia 67.116
rfoot -18.6737 -10.8234
rtoes 27.67
lfemur -51.5189 2.8113 -17.1408
ltibia 48.8209
lfoot -16.6896 -3.36536
ltoes -31.6062
